<?xml version="1.0" encoding="utf-8"?>
<!DOCTYPE svg PUBLIC "-//W3C//DTD SVG 20010904//EN" "http://www.w3.org/TR/2001/REC-SVG-20010904/DTD/svg10.dtd">
<svg version="1.0" xmlns="http://www.w3.org/2000/svg" width="119px" height="89px" viewBox="0 0 119 89" preserveAspectRatio="xMidYMid meet">
 <g fill="#0d0b0c">
  <path d="M42.45 86.35 c-2 -0.90 -3.05 -1.95 -3.80 -3.80 -0.55 -1.35 -0.85 -1.55 -1.20 -1 -0.30 0.50 -0.45 0.10 -0.45 -1.30 0 -1.35 0.15 -1.75 0.45 -1.30 0.35 0.55 0.70 0.20 1.45 -1.30 0.60 -1.10 1.60 -2.35 2.30 -2.80 2.35 -1.55 7.80 -0.75 7.80 1.15 0 1.45 -1.20 2.05 -3.35 1.70 -2.35 -0.35 -3.65 0.60 -3.65 2.75 0 1.70 0.85 2.55 2.45 2.55 1.15 0 1.15 -0.05 0.35 -0.65 -0.50 -0.35 -0.80 -1.10 -0.70 -1.65 0.15 -0.80 0.60 -0.95 3.40 -0.95 2.95 0 3.25 0.10 3.40 1.10 0.25 1.75 -1.25 4.05 -3.40 5.15 -2.20 1.10 -3.15 1.20 -5.05 0.35z"/>
  <path d="M104.70 86.30 c-2.85 -1.30 -3.70 -2.65 -3.70 -6 0 -1.70 0.30 -3.40 0.65 -3.80 2.10 -2.65 6.55 -3.35 9 -1.35 l1.40 1.10 -1.15 1.10 c-1.05 1 -1.40 1.05 -2.75 0.55 -3.05 -1.15 -5.55 2.15 -3.25 4.25 1.10 1 3.15 1.10 4 0.25 0.45 -0.45 0.80 -0.30 1.60 0.60 1.30 1.45 1.25 1.80 -0.15 2.75 -1.75 1.10 -3.90 1.35 -5.65 0.55z"/>
  <path d="M52.20 85.85 c-0.10 -0.35 -0.15 -3.10 -0.10 -6.15 l0.15 -5.45 4.75 0 4.75 0 0.15 1.65 0.15 1.60 -2.75 0 c-3.10 0 -4.30 0.85 -1.50 1.10 3.55 0.30 3.75 3.40 0.20 3.40 -1.10 0 -2 0.25 -2 0.50 0 0.30 1.35 0.50 3.05 0.50 l3 0 -0.15 1.65 -0.15 1.60 -4.65 0.15 c-3.50 0.10 -4.70 0 -4.90 -0.55z"/>
  <path d="M63.85 86.20 c-0.20 -0.20 -0.35 -2.90 -0.35 -6.05 0 -4.20 0.15 -5.65 0.65 -5.65 0.30 0.05 1.60 1.05 2.85 2.25 2.55 2.55 3.25 2.80 2.80 1 -0.55 -2.20 0.15 -3.75 1.70 -3.75 1.75 0 2 0.80 2 6.90 0 5.75 -0.55 6.20 -3.70 3.15 -1.15 -1.10 -2.25 -2.05 -2.40 -2.05 -0.20 0 -0.40 0.95 -0.50 2.15 -0.15 1.85 -0.30 2.10 -1.40 2.25 -0.70 0.10 -1.45 0 -1.65 -0.20z"/>
  <path d="M75.20 85.85 c-0.10 -0.35 -0.15 -3.10 -0.10 -6.15 l0.15 -5.45 9.75 0 9.75 0 0.15 1.60 c0.15 1.40 0 1.60 -1.35 1.90 l-1.50 0.30 -0.15 4.10 -0.15 4.10 -1.50 0 -1.50 0 -0.25 -4.25 -0.25 -4.25 -4.65 -0.10 c-3.55 -0.10 -4.60 0 -4.45 0.50 0.10 0.30 0.60 0.55 1.10 0.45 0.50 -0.10 1.45 -0.05 2.10 0.15 0.95 0.20 1.20 0.55 1.05 1.65 -0.15 1.20 -0.40 1.35 -2.25 1.50 -3.25 0.25 -2.55 1.10 0.90 1.10 l3 0 -0.15 1.65 -0.15 1.60 -4.65 0.15 c-3.50 0.10 -4.70 0 -4.90 -0.55z"/>
  <path d="M96.10 80.40 l0.15 -6.15 1.35 -0.15 c1.75 -0.20 2 0.65 1.80 7.15 l-0.15 5 -1.65 0.15 -1.65 0.15 0.15 -6.15z"/>
  <path d="M36.50 82.75 c0 -0.15 0.10 -0.25 0.25 -0.25 0.15 0 0.25 0.10 0.25 0.25 0 0.15 -0.10 0.25 -0.25 0.25 -0.15 0 -0.25 -0.10 -0.25 -0.25z"/>
  <path d="M113.90 75.65 c0.35 -0.15 0.80 -0.10 0.95 0.05 0.20 0.15 -0.10 0.30 -0.65 0.25 -0.55 0 -0.70 -0.15 -0.30 -0.30z"/>
  <path d="M115.75 75 c0.15 -0.25 0.40 -0.50 0.55 -0.50 0.15 0 0.10 0.25 -0.05 0.50 -0.15 0.30 -0.40 0.50 -0.55 0.50 -0.15 0 -0.10 -0.20 0.05 -0.50z"/>
  <path d="M115.50 72.25 c-0.75 -0.90 -2.05 -0.95 -3 -0.10 -0.60 0.50 -0.60 0.45 -0.05 -0.25 0.90 -1.20 2.90 -1.15 3.55 0.10 0.65 1.20 0.40 1.30 -0.50 0.25z"/>
  <path d="M50.25 66.20 c-1.65 -0.45 -3.85 -0.90 -4.90 -1.05 -1.45 -0.20 -2.15 -0.65 -2.80 -1.70 -0.50 -0.85 -1.90 -2.10 -3.10 -2.90 -5.50 -3.55 -10.30 -9.75 -12.50 -16.30 -1.60 -4.65 -1.70 -13.95 -0.25 -18.25 2.55 -7.50 8.35 -14.55 14.70 -17.90 7.90 -4.20 16.85 -4.95 24.70 -2.05 1.45 0.50 2.70 0.80 2.85 0.65 0.15 -0.15 0.50 -0.95 0.80 -1.85 1 -3.15 4.25 -2.10 4.25 1.40 0 1.15 0.35 1.75 1.40 2.40 5.55 3.40 10.90 11.55 12.60 19.15 1.20 5.40 1.25 7.85 0.20 13.20 -2.20 11.65 -10.85 21.25 -22.10 24.55 -4.55 1.35 -11.95 1.65 -15.85 0.65z m14.75 -6.20 c7.60 -2.20 13.70 -8.15 16.80 -16.35 1.20 -3.10 1.25 -3.90 1.10 -9.65 -0.15 -5.75 -0.30 -6.50 -1.75 -9.50 -2.75 -5.85 -7.30 -11 -6.35 -7.20 0.20 0.70 0.35 5.80 0.40 11.35 0.05 9.50 -0.05 10.30 -1.20 13.60 -0.65 1.95 -1.80 4.40 -2.55 5.50 -2.65 3.95 -9.60 9.60 -14.55 11.90 -1.05 0.45 -1.90 1.05 -1.90 1.30 0 0.75 6.20 0.15 10 -0.95z m-21.45 -7.35 l0.60 -6.10 -2.30 -3.15 c-1.25 -1.75 -3.30 -4.15 -4.60 -5.40 -1.30 -1.25 -2.85 -3.30 -3.50 -4.55 -1.40 -2.70 -2.40 -8.10 -1.95 -10.40 0.50 -2.30 -0.60 -1.90 -1.50 0.55 -1.75 4.70 -2.30 7.35 -2.30 11.45 0 6.70 2.60 13.35 7.20 18.35 2.80 3.10 6.85 6.25 7.35 5.75 0.25 -0.25 0.70 -3.15 1 -6.50z m7.10 5.75 c6.80 -2.90 14.15 -8.15 16.75 -12.05 2.70 -4 3.25 -6.75 3.50 -16.45 0.20 -9.05 -0.15 -10.70 -1.50 -7.50 -1.55 3.45 -3.30 5.35 -9.25 10 -6.10 4.70 -9.15 7.75 -10.65 10.60 -1.40 2.60 -2.55 7.40 -2.85 11.90 -0.35 5.30 -0.35 5.35 4 3.50z m-4.20 -18 c0.40 -0.90 2.35 -3.20 4.25 -5.15 3.80 -3.75 4.30 -4.20 7.85 -6.65 4 -2.75 7.25 -7.25 8.90 -12.50 1.65 -5.05 1.55 -5.70 -0.50 -6.75 -4.25 -2.05 -12.90 -3.10 -16.05 -1.90 -0.65 0.25 -2.05 0.70 -3.15 1 -3.10 0.95 -5.80 2.40 -8.75 4.75 -2.20 1.75 -2.75 2.55 -3.30 4.60 -0.85 3.25 -0.85 7.55 0 10.90 1 3.85 1.50 4.60 5.35 8.60 1.90 2 3.45 3.85 3.45 4.15 0 1.15 1.30 0.45 1.95 -1.05z"/>
 </g>
 <g fill="#00872b">
  <path d="M28.70 86.25 c-3.40 -1.50 -4.75 -5.75 -3 -9.20 1.80 -3.40 6.25 -4.15 9.45 -1.50 1.85 1.55 1.90 1.60 1.80 4.75 -0.10 3.55 -0.90 4.80 -3.75 6 -2 0.85 -2.45 0.85 -4.50 -0.05z m5.35 -2.70 c2.45 -2.50 1.85 -6.05 -1.30 -7.35 -3.45 -1.40 -7.10 2 -5.80 5.45 1.30 3.45 4.65 4.35 7.10 1.90z"/>
  <path d="M2.85 85.65 c-0.45 -1.65 -0.30 -9.80 0.20 -10.75 0.40 -0.75 1.10 -0.90 3.90 -0.90 3 0 3.55 0.15 4.75 1.30 1.55 1.60 1.70 3.60 0.30 5.10 -1.10 1.15 -2.15 1.50 -5.25 1.70 -1.90 0.15 -2 0.25 -2.25 2.10 -0.25 2.10 -1.25 2.95 -1.65 1.45z m7.55 -6.10 c0.40 -0.25 0.60 -1.05 0.50 -1.85 -0.15 -1.40 -0.20 -1.45 -3.15 -1.45 -2.75 0 -3 0.10 -3.15 1.15 -0.30 2.10 0.20 2.60 2.75 2.60 1.30 0 2.70 -0.20 3.05 -0.45z"/>
  <path d="M14.20 85.85 c-0.10 -0.35 -0.15 -3.10 -0.10 -6.15 l0.15 -5.45 3.55 -0.15 c3.15 -0.15 3.65 0 4.85 1.10 1.70 1.60 1.90 4.45 0.35 5.40 -0.55 0.35 -1 0.95 -1 1.30 0 0.40 0.45 1.25 1 1.95 0.55 0.70 1 1.60 1 1.95 0 1.40 -1.35 0.65 -2.90 -1.55 -1.35 -1.95 -1.80 -2.25 -3.35 -2.25 -1.70 0 -1.75 0.05 -1.75 1.95 0 1.95 -1.25 3.25 -1.80 1.90z m7.55 -7.85 l0 -1.75 -2.80 -0.15 -2.85 -0.15 -0.20 1.80 c-0.10 1 -0.10 1.90 0.05 2.05 0.15 0.15 1.50 0.20 3.05 0.10 l2.75 -0.15 0 -1.75z"/>
  <path d="M73 85.75 c0 -0.15 0.10 -0.25 0.25 -0.25 0.15 0 0.25 0.10 0.25 0.25 0 0.15 -0.10 0.25 -0.25 0.25 -0.15 0 -0.25 -0.10 -0.25 -0.25z"/>
  <path d="M112.55 75.35 c-0.75 -0.75 -0.70 -2.50 0.05 -3.25 0.85 -0.85 1.95 -0.70 3.35 0.45 1.10 0.90 1.15 1 0.35 1.90 -1.05 1.15 -3.05 1.60 -3.75 0.90z"/>
  <path d="M39.70 57.60 c-7.70 -6.10 -11.70 -13.85 -11.70 -22.55 0 -4.10 0.55 -6.75 2.30 -11.45 0.90 -2.45 2 -2.85 1.50 -0.55 -0.45 2.30 0.55 7.70 1.95 10.40 0.65 1.25 2.20 3.30 3.50 4.55 1.30 1.25 3.35 3.65 4.60 5.40 l2.30 3.15 -0.60 6.10 c-0.30 3.35 -0.75 6.25 -1 6.50 -0.20 0.20 -1.50 -0.50 -2.85 -1.55z"/>
  <path d="M46.65 54.90 c0.75 -10.55 3.05 -14.40 13.50 -22.50 5.95 -4.65 7.70 -6.55 9.25 -10 1.35 -3.20 1.70 -1.55 1.50 7.50 -0.25 9.70 -0.80 12.45 -3.50 16.45 -2.60 3.90 -9.95 9.15 -16.75 12.05 -4.35 1.85 -4.35 1.80 -4 -3.50z"/>
 </g>
</svg>